<?xml version="1.0" encoding="iso-8859-1"?>
<!DOCTYPE svg PUBLIC "-//W3C//DTD SVG 1.1//EN" "http://www.w3.org/Graphics/SVG/1.1/DTD/svg11.dtd">
<svg version="1.1" id="Capa_1" xmlns="http://www.w3.org/2000/svg" xmlns:xlink="http://www.w3.org/1999/xlink" x="0px" y="0px"
	 width="87.605px" height="87.605px" viewBox="0 0 87.605 87.605" style="enable-background:new 0 0 87.605 87.605;"
	 xml:space="preserve">
<g>
	<g id="Paint">
		<g>
			<path d="M87.59,10.229c0-2.732-1.066-5.3-2.994-7.229c-1.934-1.937-4.499-3-7.231-3c-2.698,0-5.235,1.037-7.157,2.925
				L43.811,26.523l-7.047-7.05c-1.048-1.048-2.657-1.293-3.974-0.599l-12.61,6.657c-0.949,0.503-1.604,1.428-1.765,2.492
				c-0.16,1.059,0.192,2.139,0.951,2.897l1.409,1.41L0.701,47.227c-0.396,0.293-0.645,0.748-0.68,1.234
				c-0.037,0.491,0.143,0.973,0.49,1.32l7.113,7.121c0.506,0.504,1.273,0.638,1.923,0.332l3.275-1.551l-1.369,3.646
				c-0.232,0.62-0.08,1.32,0.391,1.791l9.921,9.925c0.554,0.556,1.414,0.652,2.075,0.251l5.622-3.417l-3.371,5.695
				c-0.394,0.663-0.286,1.513,0.259,2.059l4.094,4.097c0.563,0.562,1.438,0.651,2.106,0.229l1.102-0.705l-0.679,1.385
				c-0.318,0.646-0.19,1.428,0.323,1.94l4.529,4.534c0.317,0.316,0.748,0.492,1.194,0.492c0.043,0,0.083,0,0.126-0.006
				c0.489-0.031,0.941-0.283,1.235-0.68l14.89-20.085l1.413,1.413c0.64,0.637,1.5,0.988,2.391,0.988c0.171,0,0.34-0.01,0.508-0.036
				c1.062-0.16,1.983-0.818,2.486-1.765l6.657-12.619c0.691-1.311,0.449-2.926-0.603-3.974l-7.047-7.049l23.588-26.403
				C86.553,15.47,87.59,12.929,87.59,10.229z M38.83,83.329l-2.286-2.283l2.802-5.722c0.335-0.686,0.174-1.504-0.39-2.012
				c-0.567-0.502-1.401-0.565-2.037-0.16l-5.045,3.22l-2.203-2.203l6.148-10.384c0.396-0.663,0.286-1.52-0.265-2.062
				c-0.553-0.547-1.406-0.647-2.069-0.246l-10.266,6.239l-8.214-8.219l2.454-6.534c0.241-0.643,0.07-1.369-0.438-1.839
				c-0.506-0.466-1.246-0.578-1.869-0.284l-5.979,2.829l-4.884-4.894l18.905-14.022l29.652,29.661L38.83,83.329z M58.224,60.219
				L27.396,29.377l6.347-3.348l27.833,27.837L58.224,60.219z M79.808,12.678c-0.046,0.043-0.088,0.091-0.131,0.14L56.283,39
				l-7.678-7.681L74.784,7.913c0.045-0.042,0.091-0.085,0.14-0.128c1.299-1.305,3.579-1.31,4.885,0
				c0.653,0.652,1.013,1.524,1.013,2.444C80.82,11.154,80.461,12.025,79.808,12.678z" fill='white'/>
		</g>
	</g>
</g>
<g>
</g>
<g>
</g>
<g>
</g>
<g>
</g>
<g>
</g>
<g>
</g>
<g>
</g>
<g>
</g>
<g>
</g>
<g>
</g>
<g>
</g>
<g>
</g>
<g>
</g>
<g>
</g>
<g>
</g>
</svg>
